<?xml version="1.0"?><svg xmlns="http://www.w3.org/2000/svg" xmlns:xlink="http://www.w3.org/1999/xlink" version="1.1" viewBox="0 0 24 24" style="enable-background:new 0 0 24 24;" xml:space="preserve"><style type="text/css">
	.st0{opacity:0.2;fill:none;stroke:#000000;stroke-width:0.05;stroke-miterlimit:10;}
</style><g id="grid_system"/><g id="Layer_2"><path d="M16,8.43994c0-0.55225-0.44727-1-1-1c-0.42664,0-0.78448,0.2691-0.92828,0.64478C13.22131,7.41583,12.16333,7,11,7   c-2.75684,0-5,2.24316-5,5s2.24316,5,5,5c1.245,0,2.37097-0.47394,3.24719-1.22961   c0.43872,0.98145,1.42017,1.66956,2.56238,1.66956c1.26855,0,2.38086-0.84326,2.70215-2.03662C19.73438,14.62061,20,13.39453,20,12   c0-3.47949-2.44336-9-9-9s-9,5.52051-9,9c0,2.64844,2.58984,9,8.96094,8.99902c0.0166,0.00098,0.0918,0.00342,0.21777,0.00342   c0.61816,0,2.43945-0.06445,4.17188-0.75342c0.5127-0.2041,0.76367-0.78564,0.55859-1.29883   c-0.20312-0.51367-0.78223-0.76367-1.29883-0.55957C12.93164,19.05957,11.05859,19.00049,11,19c-4.91797,0-7-5.00781-7-7   c0-1.94678,1.25781-7,7-7s7,5.05322,7,7c0,1.16357-0.22363,2.1958-0.41602,2.87012   c-0.08984,0.33545-0.4082,0.56982-0.77441,0.56982C16.36328,15.43994,16,15.07666,16,14.62988V8.43994z M11,15   c-1.6543,0-3-1.3457-3-3s1.3457-3,3-3s3,1.3457,3,3S12.6543,15,11,15z"/></g></svg>