<?xml version="1.0"?><svg xmlns="http://www.w3.org/2000/svg" xmlns:xlink="http://www.w3.org/1999/xlink" version="1.1" viewBox="0 0 24 24" style="enable-background:new 0 0 24 24;" xml:space="preserve"><style type="text/css">
	.st0{opacity:0.2;fill:none;stroke:#000000;stroke-width:0.05;stroke-miterlimit:10;}
</style><g id="grid_system"/><g id="Layer_2"><path d="M2.56152,6.73682C1.88965,7.3418,1.43945,8.14258,1.29297,8.99951C1.0957,10.21191,1,11.35693,1,12.5   s0.0957,2.28809,0.29492,3.5083c0.14453,0.84912,0.59473,1.6499,1.25879,2.24756c0.64746,0.5957,1.50391,1.01709,2.41309,1.18701   C6.61615,19.75128,8.30481,19.92303,10,19.97345V21H9c-0.55273,0-1,0.44775-1,1s0.44727,1,1,1h4.04688c0.55273,0,1-0.44775,1-1   s-0.44727-1-1-1H12v-1.02679c1.69287-0.05096,3.38013-0.22278,5.02832-0.53131c1.93555-0.37158,3.375-1.71973,3.66699-3.43359   l0.02051-0.12012c0.00098-0.00098,0.00098-0.00195,0.00098-0.00293c0.37695-2.24609,0.37695-4.52441-0.00098-6.77441   l-0.02051-0.12061c-0.14648-0.84961-0.5957-1.6499-1.25879-2.24609c-0.55267-0.50891-1.23352-0.86969-1.97601-1.07581   C17.02679,4.44147,16.38,3.32312,15.50488,2.35303c-0.3385-0.37848-0.77844-0.65906-1.26385-0.84161   c-0.01038-0.00293-0.01764-0.01074-0.02814-0.01337c-0.00299-0.00079-0.0058,0.00031-0.00879-0.00043   c-0.62006-0.22522-1.31366-0.28754-1.98438-0.14752C9.6377,1.87695,7.15332,2.98584,5.03516,4.55615   c-0.48474,0.3584-0.85999,0.81946-1.11377,1.3515C3.42621,6.1178,2.95483,6.38226,2.56152,6.73682z M18.09082,8.22314   c0.33789,0.30469,0.56348,0.69775,0.63379,1.10596l0.01953,0.11621c0.34082,2.02637,0.34082,4.08154,0,6.10742l-0.01953,0.11914   c-0.14844,0.87061-0.98145,1.59619-2.06836,1.80518c-3.70312,0.69238-7.61914,0.69238-11.32227,0   c-0.54492-0.10205-1.05176-0.34814-1.43457-0.7002c-0.33887-0.30518-0.56348-0.69775-0.63184-1.09766   C3.08789,14.57422,3,13.53418,3,12.5s0.08789-2.07422,0.26562-3.17139c0.05566-0.32275,0.20801-0.63574,0.4375-0.90381   c0.00067,0.0036,0.00201,0.00696,0.00269,0.01056c0.07513,0.40643,0.18127,0.80334,0.30536,1.1936   C4.02972,9.68738,4.04614,9.74622,4.0658,9.8042c0.12622,0.3725,0.27631,0.73535,0.44617,1.08948   c0.03064,0.06384,0.06207,0.12689,0.09406,0.19006c0.17828,0.35193,0.37543,0.69464,0.59625,1.0246   c0.03131,0.04675,0.06549,0.09149,0.0976,0.13776c0.2381,0.34302,0.49298,0.67639,0.77631,0.99121   c0.13617,0.15186,0.29156,0.28369,0.45459,0.40582c0.04321,0.03259,0.08582,0.06445,0.13062,0.09485   c0.15875,0.10693,0.32483,0.203,0.50128,0.28174c0.05249,0.0235,0.1073,0.04034,0.16113,0.06128   c0.14276,0.05536,0.28912,0.1012,0.43951,0.13782c0.06195,0.01508,0.12201,0.03278,0.18512,0.04456   c0.19165,0.03595,0.38745,0.05444,0.58563,0.05902c0.02588,0.00055,0.05029,0.00769,0.07629,0.00769   c0.03333,0,0.06573-0.00952,0.09888-0.01044c0.21973-0.00543,0.44055-0.0235,0.66089-0.06964   c2.57422-0.52539,5.05664-1.63818,7.16992-3.21289c0.9209-0.67236,1.46973-1.71436,1.46973-2.78711   c0-0.03418,0-0.06689-0.00098-0.09912C18.03711,8.17432,18.06348,8.19873,18.09082,8.22314z M15.73828,6.79443   c0.12598,0.43945,0.21582,0.89111,0.26953,1.34668c0.00391,0.03809,0.00195,0.0708,0.00195,0.10889   c0,0.43701-0.24316,0.87549-0.65723,1.17822c-1.88672,1.40527-4.09375,2.39502-6.38965,2.86328   c-0.5752,0.12061-1.08691-0.0415-1.39941-0.39062c-0.94238-1.04834-1.55536-2.31006-1.83887-3.67981   C6.92114,8.7215,8.17566,9.05731,9.46875,9.2207c0.14258,0.01855,0.28613,0.02783,0.42969,0.02783   c0.48047,0,0.95996-0.10254,1.4082-0.30322c0.58105-0.26025,1.0752-0.67041,1.42773-1.18457   c0.74475-1.08081,1.3324-2.24835,1.75684-3.48212C15.05261,5.03448,15.47534,5.87567,15.73828,6.79443z M12.62598,3.30859   c0.02435-0.00513,0.04797-0.00354,0.07214-0.00763c-0.37128,1.18219-0.90485,2.30078-1.61121,3.32697   c-0.14551,0.21191-0.35254,0.38232-0.59766,0.49219c-0.24512,0.10938-0.50977,0.15137-0.76758,0.1167   C8.48633,7.08069,7.29651,6.7326,6.16754,6.22125c0.02167-0.0177,0.03534-0.04138,0.05804-0.05817   C8.11133,4.76562,10.32227,3.77881,12.62598,3.30859z"/></g></svg>