<?xml version="1.0"?><svg xmlns="http://www.w3.org/2000/svg" xmlns:xlink="http://www.w3.org/1999/xlink" version="1.1" viewBox="0 0 24 24" style="enable-background:new 0 0 24 24;" xml:space="preserve"><style type="text/css">
	.st0{opacity:0.2;fill:none;stroke:#000000;stroke-width:0.05;stroke-miterlimit:10;}
</style><g id="grid_system"/><g id="Layer_2"><path d="M20.30322,7.64453c-0.48828-1.49561-1.83643-2.65332-3.51855-3.02148c-3.78418-0.82764-7.78418-0.82666-11.56934,0   C3.5332,4.99121,2.18506,6.14893,1.69678,7.64453c-0.93018,2.84961-0.93018,5.86133,0,8.71094   c0.48828,1.49561,1.83643,2.65332,3.51855,3.02148C7.10742,19.79102,9.05371,19.99756,11,19.99756s3.89258-0.20654,5.78467-0.62061   c1.68213-0.36816,3.03027-1.52588,3.51855-3.02148C21.2334,13.50586,21.2334,10.49414,20.30322,7.64453z M5.64307,6.57715   C7.39502,6.19336,9.19775,6.00195,11,6.00195s3.60498,0.19141,5.35693,0.5752c0.29785,0.06506,0.56738,0.1792,0.8194,0.315   c-1.35944,1.62494-2.96234,3.01331-4.79303,4.11176c-0.81543,0.49219-1.94922,0.49365-2.76855-0.00146   C7.78571,9.90527,6.18268,8.51691,4.82367,6.89215C5.07562,6.75635,5.34521,6.64221,5.64307,6.57715z M18.40186,15.73438   c-0.26904,0.82471-1.05273,1.47168-2.04492,1.68848c-3.50391,0.76758-7.20996,0.76758-10.71387,0   c-0.99219-0.2168-1.77588-0.86377-2.04492-1.68848c-0.77655-2.37762-0.79102-4.88708-0.05591-7.27179   c1.44971,1.66986,3.13251,3.10834,5.04126,4.25323c0.71973,0.43457,1.55518,0.66406,2.4165,0.66406s1.69678-0.22949,2.41455-0.6626   c1.91034-1.14612,3.5932-2.58459,5.04321-4.25464C19.19287,10.84735,19.17841,13.35675,18.40186,15.73438z"/></g></svg>