<svg id="Layer_1" data-name="Layer 1" xmlns="http://www.w3.org/2000/svg" viewBox="0 0 96 96"><path d="M50.32,50.57a.84.84,0,0,1-.27,0L2.73,37.27a1,1,0,0,1,0-1.93l46.2-13.26a.92.92,0,0,1,.52,0L93.25,33.24a1,1,0,0,1,.09,1.91L50.66,50.51A1,1,0,0,1,50.32,50.57ZM6.66,36.29,50.28,48.52,89.59,34.37,49.21,24.07Z"/><path d="M49.19,65a70.55,70.55,0,0,1-24.95-4.56,1,1,0,0,1-.65-.94V42.36a1,1,0,0,1,2,0V58.8a68.63,68.63,0,0,0,47.2,0V41.12a1,1,0,1,1,2,0V59.49a1,1,0,0,1-.64.94A70.61,70.61,0,0,1,49.19,65Z"/><path d="M80.82,59.78a1,1,0,0,1-1-1V38.59a1,1,0,0,1,2,0V58.78A1,1,0,0,1,80.82,59.78Z"/><path d="M80.82,64.23A3.23,3.23,0,1,1,84,61,3.23,3.23,0,0,1,80.82,64.23Zm0-4.45A1.23,1.23,0,1,0,82,61,1.22,1.22,0,0,0,80.82,59.78Z"/><path d="M80.82,39.59h-.13L49.06,35.32a1,1,0,1,1,.27-2L81,37.6a1,1,0,0,1-.13,2Z"/><path d="M87.34,74h-.08c-6.4-.5-8-7.3-8-10.82a1,1,0,0,1,1-1h0a1,1,0,0,1,1,1c0,.34,0,8.13,5.92,8.79.9-.36,2.67-1.28,3-2.38-2-.53-7-2.28-8.59-6.86a1,1,0,1,1,1.9-.64c1.52,4.52,7.81,5.71,7.87,5.72a1,1,0,0,1,.8.77c.59,2.77-2.55,4.66-4.5,5.35A1.26,1.26,0,0,1,87.34,74Z"/></svg>