<svg xmlns="http://www.w3.org/2000/svg" width="2191.594" height="2623.606" viewBox="0 0 2191.594 2623.606"><g transform="translate(-65.753 -55.151)"><path d="M2023.364,491.712H1659.919V400.826H1522.153V8.814H968.036A332.56,332.56,0,0,0,710.431,111.245a367.213,367.213,0,0,0-85.6,251.068V490.941H191.337L10,2169.9l1095.792,462.1,1095.8-462.1ZM920.358,505.065s-32.087-143.8,11.952-201.258,112.732-50.581,112.732-50.581V505.065Z" transform="translate(55.758 46.763)" fill="#fff"/><path d="M2023.364,491.712H1659.919V400.826H1522.153V8.814H968.036A332.56,332.56,0,0,0,710.431,111.245a367.213,367.213,0,0,0-85.6,251.068V490.941H191.337L10,2169.9l1095.792,462.1,1095.8-462.1Zm-914.465,2101h-3.882L53.572,2149.1,226.346,536.377v-9.25H665.289V362.313A332.825,332.825,0,0,1,743.113,131.27,297.4,297.4,0,0,1,971.933,41.16H1488.7V432.4h137.751v94.726h366.557v4.625l171.219,1612.724Z" transform="translate(55.758 46.763)" fill="#1d1d1b"/><path d="M158.281,133.46H20.53V381.452H158.281V444.6H513.948L468.036,12.541H158.281V133.46Z" transform="translate(1521.592 624.514)" fill="#00b1eb" fill-rule="evenodd"/><path d="M57.527,12.541,11.6,444.6H438.87V12.541Z" transform="translate(279.068 624.514)" fill="#00b1eb" fill-rule="evenodd"/><path d="M1878.6,16.041H1516.7V170.078H1381.287V379.557H950.122V16.041h-161.1V56.866c0,206.4-193.782,315-389.121,315H380.436v-224.9h12.459c90.269,0,155.648-46.978,155.648-109.357V16.041H120.5L10.768,1043.437,999.931,1460.1l989.178-416.66Z" transform="translate(163.174 1111.611)" fill="#005ca9" fill-rule="evenodd"/><path d="M177.421,12.541H16.321V444.6h161.1Z" transform="translate(935.876 624.514)" fill="#00b1eb"/><path d="M125.807,10.078a110.665,110.665,0,0,0-44.427,9.4,109.552,109.552,0,0,0-36.761,26.39,107.924,107.924,0,0,0-27.763,83.584v162.5h161.1V10.078Zm16.355,246.45H52.65V129.456a76.587,76.587,0,0,1,18.57-57.363A77.7,77.7,0,0,1,95.773,53.3a78.545,78.545,0,0,1,30.034-7.792h16.355Z" transform="translate(935.34 281.915)" fill-rule="evenodd"/><path d="M111.826,54.523A44.732,44.732,0,0,0,86.473,60.7,44.091,44.091,0,0,0,69.025,79.931a113.775,113.775,0,0,0-12.459,54.686H22.327A125.333,125.333,0,0,1,44.891,52.981,77.587,77.587,0,0,1,75.233,27.8a78.4,78.4,0,0,1,38.933-7.161A89.246,89.246,0,0,1,177.2,44.5a88.753,88.753,0,0,1,20.321,31.533,87.715,87.715,0,0,1,5.354,37.013,100.166,100.166,0,0,1-21.008,67.776,275.445,275.445,0,0,1-47.482,43.138q-27.223,18.478-51.364,36.957a76.9,76.9,0,0,0-28.786,47.762h145.53v33.888H14.549A145.234,145.234,0,0,1,41.78,258.62,282.512,282.512,0,0,1,94.7,210.857a335.713,335.713,0,0,0,54.489-45.436,76.548,76.548,0,0,0,17.9-53.144A55.1,55.1,0,0,0,150.745,70.7a54.024,54.024,0,0,0-38.919-16.173Z" transform="translate(689.389 1721.611)" fill="#fff"/><path d="M108.167,347.658a73.686,73.686,0,0,1-49.374-13.342,72.4,72.4,0,0,1-28.45-42.1,425.362,425.362,0,0,1,0-217.187A85.68,85.68,0,0,1,62.073,35.381a87.17,87.17,0,0,1,97.641,0,85.764,85.764,0,0,1,31.729,39.648,436.059,436.059,0,0,1,0,217.187A71.715,71.715,0,0,1,161.1,336.544,72.962,72.962,0,0,1,108.167,347.658Zm0-293.428a48.764,48.764,0,0,0-19,2.887A48.175,48.175,0,0,0,72.808,67.11a47.566,47.566,0,0,0-15.234,34.1,468.817,468.817,0,0,0,0,165.585,50.692,50.692,0,0,0,16.972,31.842,51.735,51.735,0,0,0,68.028,0,50.673,50.673,0,0,0,16.958-31.842,478.228,478.228,0,0,0,0-165.585,47.127,47.127,0,0,0-4.176-18.766A48.07,48.07,0,0,0,127.41,56.88,48.528,48.528,0,0,0,108.167,54.231Z" transform="translate(925.748 1721.905)" fill="#fff"/><path d="M130.057,20.426v321.92H91.138V111.3H17.981v-30.8A113.962,113.962,0,0,0,70.13,68.945,60.388,60.388,0,0,0,90.451,48.568,59.884,59.884,0,0,0,98.931,21.2Z" transform="translate(1166.915 1721.808)" fill="#fff"/><path d="M175.1,20.426V232.988H207v33.888H175.1v77.012H143.957V266.876H19.436V227.593L147.853,20.426ZM46.681,232.988h97.277V74.327Z" transform="translate(1369.36 1721.808)" fill="#fff"/></g></svg>